# xmcd
#
# Track frame offsets:
#	150
#	18780
#	31369
#	48804
#	67805
#	83759
#	96277
#	112824
#	125922
#	142266
#	155626
#	169826
#	190378
#	205579
#	222495
#	235631
#	246497
#
# Disc length: 3506 seconds
#
# Revision: 0
# Processed by: cddbd v1.5.1PL0 Copyright (c) Steve Scherf et al.
# Submitted via: dBpowerAMP V4.0
#
DISCID=ec0db011
DTITLE=CANARIOS DO REINO - VOL 9
DYEAR=2004
DGENRE=FORRO
TTITLE0=carro de som
TTITLE1=todo bebo é bonequeiro
TTITLE2=sua obsessão
TTITLE3=arriégua
TTITLE4=ta vendo que eu nao vou
TTITLE5=arranjar uma mulher
TTITLE6=bara bara coré coré
TTITLE7=pense bem
TTITLE8=não dá pra entender
TTITLE9=libere as quengas
TTITLE10=amor zerado
TTITLE11=sou louco por ela
TTITLE12=resposta da patricinha
TTITLE13=não e brinquedo nao
TTITLE14=cercado de mulher
TTITLE15=pelo o rabinho
TTITLE16=é saudade de novo
EXTD=
EXTT0=
EXTT1=
EXTT2=
EXTT3=
EXTT4=
EXTT5=
EXTT6=
EXTT7=
EXTT8=
EXTT9=
EXTT10=
EXTT11=
EXTT12=
EXTT13=
EXTT14=
EXTT15=
EXTT16=
PLAYORDER=
